<svg xmlns="http://www.w3.org/2000/svg" viewBox="0 0 100 100" width="100" height="100">
  <circle cx="50" cy="50" r="46" fill="#121212" stroke="#00d2ff" stroke-width="4"/>
  <!-- Duck Body -->
  <path d="M25 55 C25 35, 45 35, 50 45 C55 35, 75 35, 75 55 C75 70, 65 75, 50 75 C35 75, 25 70, 25 55 Z" fill="#00d2ff"/>
  <!-- Duck Head -->
  <circle cx="50" cy="40" r="18" fill="#00d2ff"/>
  <!-- Eye -->
  <circle cx="44" cy="36" r="2.5" fill="#121212"/>
  <!-- Beak -->
  <path d="M32 38 C32 34, 42 36, 42 40 C42 44, 32 42, 32 38 Z" fill="#ff007f"/>
  <!-- Wing -->
  <path d="M52 55 C52 48, 68 48, 65 58 C62 65, 52 62, 52 55 Z" fill="#00b8e6"/>
</svg>
